Coordinates
version=1
nRows=9
nColumns=36
inDegrees=yes

Units are S.I. units (second, meters, Newtons, ...)
If the header above contains a line with 'inDegrees', this indicates whether rotational values are in degrees (yes) or radians (no).

endheader
time	pelvis_tilt	pelvis_list	pelvis_rotation	pelvis_tx	pelvis_ty	pelvis_tz	hip_flexion_r	hip_adduction_r	hip_rotation_r	knee_angle_r	knee_angle_r_beta	ankle_angle_r	subtalar_angle_r	mtp_angle_r	hip_flexion_l	hip_adduction_l	hip_rotation_l	knee_angle_l	knee_angle_l_beta	ankle_angle_l	subtalar_angle_l	mtp_angle_l	lumbar_extension	lumbar_bending	lumbar_rotation	arm_flex_r	arm_add_r	arm_rot_r	elbow_flex_r	pro_sup_r	arm_flex_l	arm_add_l	arm_rot_l	elbow_flex_l	pro_sup_l
      8.38333330	    -17.06746940	      5.28824413	      1.76598024	      0.81904146	      1.02729146	     -0.01049037	     30.24363256	     -8.89670764	     -6.90927986	     35.72271936	      0.62347907	      6.11492782	     -5.45394144	     -7.49999987	     27.75828752	      0.41195554	      0.45185895	     29.94744017	      0.52268143	     11.07144553	      6.21232864	     -7.49999987	      1.22883553	     -2.33664819	      9.66624479	    -16.84705035	    -47.64061204	     19.54505872	    149.09125048	     92.34791899	     60.79618135	    -31.27293199	     71.08375538	    134.36407651	     76.02359628
      8.40000000	    -16.09382952	      5.08412997	      2.06510952	      0.82880083	      1.05390123	     -0.00730481	     24.86055018	     -8.46921027	     -9.23827179	     27.77401800	      0.48474806	      0.15342122	     -1.08089280	     -7.49999987	     22.67705710	     -0.18302021	      0.33245744	     21.32087088	      0.37211940	      1.34084628	      9.53163643	     -7.49999987	      3.27699730	     -2.92386032	     10.98656337	    -26.38918158	    -49.49025744	     11.65455791	    149.37524404	     88.75820286	     63.74894251	    -32.72270399	     77.66309060	    134.96100705	     74.00549518
      8.41666670	    -15.77886176	      4.82457642	      2.64150328	      0.83548927	      1.07461316	     -0.00323669	     21.14779083	     -7.94255610	    -10.97768219	     21.23378461	      0.37059945	     -6.57662321	      2.41961284	     -7.49999987	     19.39075905	     -0.82882045	      0.20626948	     14.27585922	      0.24916075	     -8.11432508	     11.94149634	     -7.49999987	      5.23198435	     -3.60728064	     12.45641996	    -34.41282169	    -50.23925417	      0.98540656	    149.43663144	     85.42938580	     67.15403270	    -33.21521262	     82.51552286	    134.31579090	     73.11093594
      8.43333330	    -15.54828302	      4.81235105	      3.24880515	      0.84119710	      1.10223266	      0.00187699	     18.66863461	     -7.46921752	    -11.99297723	     15.53025064	      0.27105401	    -14.95253678	      3.48576254	     -7.49999987	     17.26198877	     -1.20071279	     -1.15553868	      8.50014126	      0.14835545	    -16.20840747	     13.08763059	     -7.49999987	      6.27224375	     -4.46761165	     13.52522845	    -40.81361323	    -48.90179648	     -8.07957929	    149.38470858	     84.16097353	     68.87441417	    -33.67089352	     86.10310484	    134.03443410	     72.94284200
      8.45000000	    -15.24963303	      4.83062244	      3.53408494	      0.84893203	      1.13685972	      0.00174116	     16.43400886	     -7.04225152	    -14.04476000	     10.05862869	      0.17555619	    -22.72220682	      3.03335076	     -7.49999987	     15.14440475	     -1.28254134	     -4.05355881	      3.85444310	      0.06727272	    -21.04870191	     12.90235386	     -7.49999987	      6.70327945	     -4.67112178	     13.21625129	    -41.72280200	    -47.39693535	    -10.48686478	    149.02074301	     85.39799911	     66.19580020	    -35.17297513	     86.71903509	    134.48796798	     73.75956236
      8.46666670	    -15.10868822	      4.65701303	      4.07623640	      0.85351082	      1.16399358	      0.00434805	     15.04119535	     -6.33824496	    -17.48804344	      6.10103125	      0.10648308	    -26.44486678	      0.58706829	     -7.49999987	     13.98961709	     -1.14443067	     -7.08614155	      1.64640350	      0.02873516	    -21.78922673	     12.06429822	     -7.49999987	      6.57724325	     -4.49499553	     13.22016143	    -42.20538988	    -43.15147144	    -11.36543983	    148.08076038	     86.08653718	     62.32275325	    -35.65444095	     86.08528817	    133.85276240	     74.42375841
      8.48333330	    -15.03294804	      4.64036302	      4.26143764	      0.84805727	      1.19039527	      0.00837446	     14.49920793	     -5.74102795	    -20.53538502	      3.67524631	      0.06414515	    -28.75164508	     -1.41541158	     -7.49999987	     13.68958183	     -0.82587674	     -9.86387608	      1.12870838	      0.01969968	    -22.47223981	     10.66982175	     -7.49999987	      6.18903786	     -4.31084734	     12.05593026	    -37.77202508	    -40.40371384	     -7.75183638	    144.54002643	     87.59160584	     56.40506726	    -37.07640226	     82.82624051	    132.04035945	     76.36125806
      8.50000000	    -14.64768644	      4.55002382	      4.23729987	      0.85156334	      1.21294187	      0.01068769	     14.04988847	     -5.15582693	    -22.18964072	      2.94001055	      0.05131286	    -28.96634298	     -2.12565191	     -7.49999987	     13.30379816	     -0.68716407	    -11.92044770	      1.90639594	      0.03327289	    -22.71444016	      9.58094392	     -7.49999987	      5.64747993	     -4.02700308	      9.79242281	    -31.29091947	    -38.59519859	     -1.98981335	    138.55742652	     88.79238892	     48.60173439	    -38.83777464	     76.76988556	    128.95237341	     78.02102183
      8.51666670	    -14.16677727	      4.23135089	      3.69759470	      0.85119488	      1.22644347	      0.01131023	     13.95004935	     -4.41646418	    -22.81711105	      3.67031212	      0.06405903	    -29.21087977	     -2.85189539	     -7.49999987	     12.91414452	     -0.96258317	    -13.02885038	      3.29357973	      0.05748381	    -23.07206622	      8.75525938	     -7.49999987	      4.74306494	     -3.31709008	     10.19277068	    -29.63660060	    -35.19642151	     -0.98870261	    133.73192027	     88.46793284	     44.18326382	    -37.38164695	     73.29584440	    124.34160638	     77.68953343
